<svg xmlns="http://www.w3.org/2000/svg" viewBox="0 0 250 250" width="1200" height="1200" shape-rendering="crispEdges">
<rect width="100%" height="100%" fill="#fff"/>
<path fill="#000" d="
M40 40h41v1H40zM92 40h6v1H92zM116 40h6v1H116zM133 40h24v1H133zM168 40h42v1H168zM40 41h41v1H40zM92 41h6v1H92zM116 41h6v1H116zM133 41h24v1H133zM168 41h42v1H168zM40 42h41v1H40zM92 42h6v1H92zM116 42h6v1H116zM133 42h24v1H133zM168 42h42v1H168zM40 43h41v1H40zM92 43h6v1H92zM116 43h6v1H116zM133 43h24v1H133zM168 43h42v1H168zM40 44h41v1H40zM92 44h6v1H92zM116 44h6v1H116zM133 44h24v1H133zM168 44h42v1H168zM40 45h5v1H40zM75 45h6v1H75zM86 45h12v1H86zM104 45h12v1H104zM127 45h6v1H127zM139 45h6v1H139zM157 45h6v1H157zM168 45h6v1H168zM204 45h6v1H204zM40 46h5v1H40zM75 46h6v1H75zM86 46h12v1H86zM104 46h12v1H104zM127 46h6v1H127zM139 46h6v1H139zM157 46h6v1H157zM168 46h6v1H168zM204 46h6v1H204zM40 47h5v1H40zM75 47h6v1H75zM86 47h12v1H86zM104 47h12v1H104zM127 47h6v1H127zM139 47h6v1H139zM157 47h6v1H157zM168 47h6v1H168zM204 47h6v1H204zM40 48h5v1H40zM75 48h6v1H75zM86 48h12v1H86zM104 48h12v1H104zM127 48h6v1H127zM139 48h6v1H139zM157 48h6v1H157zM168 48h6v1H168zM204 48h6v1H204zM40 49h5v1H40zM75 49h6v1H75zM86 49h12v1H86zM104 49h12v1H104zM127 49h6v1H127zM139 49h6v1H139zM157 49h6v1H157zM168 49h6v1H168zM204 49h6v1H204zM40 50h5v1H40zM75 50h6v1H75zM86 50h12v1H86zM104 50h12v1H104zM127 50h6v1H127zM139 50h6v1H139zM157 50h6v1H157zM168 50h6v1H168zM204 50h6v1H204zM40 51h5v1H40zM51 51h18v1H51zM75 51h6v1H75zM92 51h18v1H92zM122 51h5v1H122zM145 51h6v1H145zM157 51h6v1H157zM168 51h6v1H168zM180 51h18v1H180zM204 51h6v1H204zM40 52h5v1H40zM51 52h18v1H51zM75 52h6v1H75zM92 52h18v1H92zM122 52h5v1H122zM145 52h6v1H145zM157 52h6v1H157zM168 52h6v1H168zM180 52h18v1H180zM204 52h6v1H204zM40 53h5v1H40zM51 53h18v1H51zM75 53h6v1H75zM92 53h18v1H92zM122 53h5v1H122zM145 53h6v1H145zM157 53h6v1H157zM168 53h6v1H168zM180 53h18v1H180zM204 53h6v1H204zM40 54h5v1H40zM51 54h18v1H51zM75 54h6v1H75zM92 54h18v1H92zM122 54h5v1H122zM145 54h6v1H145zM157 54h6v1H157zM168 54h6v1H168zM180 54h18v1H180zM204 54h6v1H204zM40 55h5v1H40zM51 55h18v1H51zM75 55h6v1H75zM92 55h18v1H92zM122 55h5v1H122zM145 55h6v1H145zM157 55h6v1H157zM168 55h6v1H168zM180 55h18v1H180zM204 55h6v1H204zM40 56h5v1H40zM51 56h18v1H51zM75 56h6v1H75zM92 56h18v1H92zM122 56h5v1H122zM145 56h6v1H145zM157 56h6v1H157zM168 56h6v1H168zM180 56h18v1H180zM204 56h6v1H204zM40 57h5v1H40zM51 57h18v1H51zM75 57h6v1H75zM86 57h12v1H86zM104 57h6v1H104zM116 57h29v1H116zM168 57h6v1H168zM180 57h18v1H180zM204 57h6v1H204zM40 58h5v1H40zM51 58h18v1H51zM75 58h6v1H75zM86 58h12v1H86zM104 58h6v1H104zM116 58h29v1H116zM168 58h6v1H168zM180 58h18v1H180zM204 58h6v1H204zM40 59h5v1H40zM51 59h18v1H51zM75 59h6v1H75zM86 59h12v1H86zM104 59h6v1H104zM116 59h29v1H116zM168 59h6v1H168zM180 59h18v1H180zM204 59h6v1H204zM40 60h5v1H40zM51 60h18v1H51zM75 60h6v1H75zM86 60h12v1H86zM104 60h6v1H104zM116 60h29v1H116zM168 60h6v1H168zM180 60h18v1H180zM204 60h6v1H204zM40 61h5v1H40zM51 61h18v1H51zM75 61h6v1H75zM86 61h12v1H86zM104 61h6v1H104zM116 61h29v1H116zM168 61h6v1H168zM180 61h18v1H180zM204 61h6v1H204zM40 62h5v1H40zM51 62h18v1H51zM75 62h6v1H75zM86 62h12v1H86zM104 62h6v1H104zM116 62h29v1H116zM168 62h6v1H168zM180 62h18v1H180zM204 62h6v1H204zM40 63h5v1H40zM51 63h18v1H51zM75 63h6v1H75zM98 63h6v1H98zM110 63h6v1H110zM133 63h6v1H133zM145 63h18v1H145zM168 63h6v1H168zM180 63h18v1H180zM204 63h6v1H204zM40 64h5v1H40zM51 64h18v1H51zM75 64h6v1H75zM98 64h6v1H98zM110 64h6v1H110zM133 64h6v1H133zM145 64h18v1H145zM168 64h6v1H168zM180 64h18v1H180zM204 64h6v1H204zM40 65h5v1H40zM51 65h18v1H51zM75 65h6v1H75zM98 65h6v1H98zM110 65h6v1H110zM133 65h6v1H133zM145 65h18v1H145zM168 65h6v1H168zM180 65h18v1H180zM204 65h6v1H204zM40 66h5v1H40zM51 66h18v1H51zM75 66h6v1H75zM98 66h6v1H98zM110 66h6v1H110zM133 66h6v1H133zM145 66h18v1H145zM168 66h6v1H168zM180 66h18v1H180zM204 66h6v1H204zM40 67h5v1H40zM51 67h18v1H51zM75 67h6v1H75zM98 67h6v1H98zM110 67h6v1H110zM133 67h6v1H133zM145 67h18v1H145zM168 67h6v1H168zM180 67h18v1H180zM204 67h6v1H204zM40 68h5v1H40zM51 68h18v1H51zM75 68h6v1H75zM98 68h6v1H98zM110 68h6v1H110zM133 68h6v1H133zM145 68h18v1H145zM168 68h6v1H168zM180 68h18v1H180zM204 68h6v1H204zM40 69h5v1H40zM75 69h6v1H75zM86 69h6v1H86zM98 69h6v1H98zM127 69h18v1H127zM157 69h6v1H157zM168 69h6v1H168zM204 69h6v1H204zM40 70h5v1H40zM75 70h6v1H75zM86 70h6v1H86zM98 70h6v1H98zM127 70h18v1H127zM157 70h6v1H157zM168 70h6v1H168zM204 70h6v1H204zM40 71h5v1H40zM75 71h6v1H75zM86 71h6v1H86zM98 71h6v1H98zM127 71h18v1H127zM157 71h6v1H157zM168 71h6v1H168zM204 71h6v1H204zM40 72h5v1H40zM75 72h6v1H75zM86 72h6v1H86zM98 72h6v1H98zM127 72h18v1H127zM157 72h6v1H157zM168 72h6v1H168zM204 72h6v1H204zM40 73h5v1H40zM75 73h6v1H75zM86 73h6v1H86zM98 73h6v1H98zM127 73h18v1H127zM157 73h6v1H157zM168 73h6v1H168zM204 73h6v1H204zM40 74h5v1H40zM75 74h6v1H75zM86 74h6v1H86zM98 74h6v1H98zM127 74h18v1H127zM157 74h6v1H157zM168 74h6v1H168zM204 74h6v1H204zM40 75h41v1H40zM86 75h6v1H86zM98 75h6v1H98zM110 75h6v1H110zM122 75h5v1H122zM133 75h6v1H133zM145 75h6v1H145zM157 75h6v1H157zM168 75h42v1H168zM40 76h41v1H40zM86 76h6v1H86zM98 76h6v1H98zM110 76h6v1H110zM122 76h5v1H122zM133 76h6v1H133zM145 76h6v1H145zM157 76h6v1H157zM168 76h42v1H168zM40 77h41v1H40zM86 77h6v1H86zM98 77h6v1H98zM110 77h6v1H110zM122 77h5v1H122zM133 77h6v1H133zM145 77h6v1H145zM157 77h6v1H157zM168 77h42v1H168zM40 78h41v1H40zM86 78h6v1H86zM98 78h6v1H98zM110 78h6v1H110zM122 78h5v1H122zM133 78h6v1H133zM145 78h6v1H145zM157 78h6v1H157zM168 78h42v1H168zM40 79h41v1H40zM86 79h6v1H86zM98 79h6v1H98zM110 79h6v1H110zM122 79h5v1H122zM133 79h6v1H133zM145 79h6v1H145zM157 79h6v1H157zM168 79h42v1H168zM40 80h41v1H40zM86 80h6v1H86zM98 80h6v1H98zM110 80h6v1H110zM122 80h5v1H122zM133 80h6v1H133zM145 80h6v1H145zM157 80h6v1H157zM168 80h42v1H168zM110 81h6v1H110zM122 81h11v1H122zM157 81h6v1H157zM110 82h6v1H110zM122 82h11v1H122zM157 82h6v1H157zM110 83h6v1H110zM122 83h11v1H122zM157 83h6v1H157zM110 84h6v1H110zM122 84h11v1H122zM157 84h6v1H157zM110 85h6v1H110zM122 85h11v1H122zM157 85h6v1H157zM40 86h29v1H40zM75 86h29v1H75zM110 86h23v1H110zM139 86h6v1H139zM157 86h11v1H157zM174 86h6v1H174zM186 86h6v1H186zM198 86h6v1H198zM40 87h29v1H40zM75 87h29v1H75zM110 87h23v1H110zM139 87h6v1H139zM157 87h11v1H157zM174 87h6v1H174zM186 87h6v1H186zM198 87h6v1H198zM40 88h29v1H40zM75 88h29v1H75zM110 88h23v1H110zM139 88h6v1H139zM157 88h11v1H157zM174 88h6v1H174zM186 88h6v1H186zM198 88h6v1H198zM40 89h29v1H40zM75 89h29v1H75zM110 89h23v1H110zM139 89h6v1H139zM157 89h11v1H157zM174 89h6v1H174zM186 89h6v1H186zM198 89h6v1H198zM40 90h29v1H40zM75 90h29v1H75zM110 90h23v1H110zM139 90h6v1H139zM157 90h11v1H157zM174 90h6v1H174zM186 90h6v1H186zM198 90h6v1H198zM40 91h29v1H40zM75 91h29v1H75zM110 91h23v1H110zM139 91h6v1H139zM157 91h11v1H157zM174 91h6v1H174zM186 91h6v1H186zM198 91h6v1H198zM40 92h5v1H40zM51 92h24v1H51zM81 92h5v1H81zM92 92h6v1H92zM133 92h53v1H133zM204 92h6v1H204zM40 93h5v1H40zM51 93h24v1H51zM81 93h5v1H81zM92 93h6v1H92zM133 93h53v1H133zM204 93h6v1H204zM40 94h5v1H40zM51 94h24v1H51zM81 94h5v1H81zM92 94h6v1H92zM133 94h53v1H133zM204 94h6v1H204zM40 95h5v1H40zM51 95h24v1H51zM81 95h5v1H81zM92 95h6v1H92zM133 95h53v1H133zM204 95h6v1H204zM40 96h5v1H40zM51 96h24v1H51zM81 96h5v1H81zM92 96h6v1H92zM133 96h53v1H133zM204 96h6v1H204zM40 97h5v1H40zM51 97h24v1H51zM81 97h5v1H81zM92 97h6v1H92zM133 97h53v1H133zM204 97h6v1H204zM51 98h6v1H51zM63 98h6v1H63zM75 98h6v1H75zM92 98h6v1H92zM104 98h35v1H104zM145 98h6v1H145zM163 98h11v1H163zM51 99h6v1H51zM63 99h6v1H63zM75 99h6v1H75zM92 99h6v1H92zM104 99h35v1H104zM145 99h6v1H145zM163 99h11v1H163zM51 100h6v1H51zM63 100h6v1H63zM75 100h6v1H75zM92 100h6v1H92zM104 100h35v1H104zM145 100h6v1H145zM163 100h11v1H163zM51 101h6v1H51zM63 101h6v1H63zM75 101h6v1H75zM92 101h6v1H92zM104 101h35v1H104zM145 101h6v1H145zM163 101h11v1H163zM51 102h6v1H51zM63 102h6v1H63zM75 102h6v1H75zM92 102h6v1H92zM104 102h35v1H104zM145 102h6v1H145zM163 102h11v1H163zM51 103h6v1H51zM63 103h6v1H63zM75 103h6v1H75zM92 103h6v1H92zM104 103h35v1H104zM145 103h6v1H145zM163 103h11v1H163zM40 104h23v1H40zM81 104h5v1H81zM92 104h18v1H92zM122 104h17v1H122zM163 104h11v1H163zM186 104h6v1H186zM198 104h6v1H198zM40 105h23v1H40zM81 105h5v1H81zM92 105h18v1H92zM122 105h17v1H122zM163 105h11v1H163zM186 105h6v1H186zM198 105h6v1H198zM40 106h23v1H40zM81 106h5v1H81zM92 106h18v1H92zM122 106h17v1H122zM163 106h11v1H163zM186 106h6v1H186zM198 106h6v1H198zM40 107h23v1H40zM81 107h5v1H81zM92 107h18v1H92zM122 107h17v1H122zM163 107h11v1H163zM186 107h6v1H186zM198 107h6v1H198zM40 108h23v1H40zM81 108h5v1H81zM92 108h18v1H92zM122 108h17v1H122zM163 108h11v1H163zM186 108h6v1H186zM198 108h6v1H198zM40 109h23v1H40zM81 109h5v1H81zM92 109h18v1H92zM122 109h17v1H122zM163 109h11v1H163zM186 109h6v1H186zM198 109h6v1H198zM40 110h11v1H40zM57 110h6v1H57zM75 110h6v1H75zM92 110h6v1H92zM104 110h6v1H104zM116 110h11v1H116zM139 110h6v1H139zM151 110h6v1H151zM163 110h5v1H163zM174 110h6v1H174zM186 110h12v1H186zM40 111h11v1H40zM57 111h6v1H57zM75 111h6v1H75zM92 111h6v1H92zM104 111h6v1H104zM116 111h11v1H116zM139 111h6v1H139zM151 111h6v1H151zM163 111h5v1H163zM174 111h6v1H174zM186 111h12v1H186zM40 112h11v1H40zM57 112h6v1H57zM75 112h6v1H75zM92 112h6v1H92zM104 112h6v1H104zM116 112h11v1H116zM139 112h6v1H139zM151 112h6v1H151zM163 112h5v1H163zM174 112h6v1H174zM186 112h12v1H186zM40 113h11v1H40zM57 113h6v1H57zM75 113h6v1H75zM92 113h6v1H92zM104 113h6v1H104zM116 113h11v1H116zM139 113h6v1H139zM151 113h6v1H151zM163 113h5v1H163zM174 113h6v1H174zM186 113h12v1H186zM40 114h11v1H40zM57 114h6v1H57zM75 114h6v1H75zM92 114h6v1H92zM104 114h6v1H104zM116 114h11v1H116zM139 114h6v1H139zM151 114h6v1H151zM163 114h5v1H163zM174 114h6v1H174zM186 114h12v1H186zM40 115h11v1H40zM57 115h6v1H57zM75 115h6v1H75zM92 115h6v1H92zM104 115h6v1H104zM116 115h11v1H116zM139 115h6v1H139zM151 115h6v1H151zM163 115h5v1H163zM174 115h6v1H174zM186 115h12v1H186zM40 116h11v1H40zM57 116h12v1H57zM86 116h6v1H86zM98 116h6v1H98zM110 116h6v1H110zM133 116h6v1H133zM151 116h12v1H151zM168 116h18v1H168zM204 116h6v1H204zM40 117h11v1H40zM57 117h12v1H57zM86 117h6v1H86zM98 117h6v1H98zM110 117h6v1H110zM133 117h6v1H133zM151 117h12v1H151zM168 117h18v1H168zM204 117h6v1H204zM40 118h11v1H40zM57 118h12v1H57zM86 118h6v1H86zM98 118h6v1H98zM110 118h6v1H110zM133 118h6v1H133zM151 118h12v1H151zM168 118h18v1H168zM204 118h6v1H204zM40 119h11v1H40zM57 119h12v1H57zM86 119h6v1H86zM98 119h6v1H98zM110 119h6v1H110zM133 119h6v1H133zM151 119h12v1H151zM168 119h18v1H168zM204 119h6v1H204zM40 120h11v1H40zM57 120h12v1H57zM86 120h6v1H86zM98 120h6v1H98zM110 120h6v1H110zM133 120h6v1H133zM151 120h12v1H151zM168 120h18v1H168zM204 120h6v1H204zM40 121h11v1H40zM57 121h12v1H57zM86 121h6v1H86zM98 121h6v1H98zM110 121h6v1H110zM133 121h6v1H133zM151 121h12v1H151zM168 121h18v1H168zM204 121h6v1H204zM45 122h6v1H45zM57 122h6v1H57zM69 122h12v1H69zM86 122h6v1H86zM122 122h17v1H122zM157 122h17v1H157zM186 122h12v1H186zM45 123h6v1H45zM57 123h6v1H57zM69 123h12v1H69zM86 123h6v1H86zM122 123h17v1H122zM157 123h17v1H157zM186 123h12v1H186zM45 124h6v1H45zM57 124h6v1H57zM69 124h12v1H69zM86 124h6v1H86zM122 124h17v1H122zM157 124h17v1H157zM186 124h12v1H186zM45 125h6v1H45zM57 125h6v1H57zM69 125h12v1H69zM86 125h6v1H86zM122 125h17v1H122zM157 125h17v1H157zM186 125h12v1H186zM45 126h6v1H45zM57 126h6v1H57zM69 126h12v1H69zM86 126h6v1H86zM122 126h17v1H122zM157 126h17v1H157zM186 126h12v1H186zM40 127h23v1H40zM69 127h6v1H69zM81 127h11v1H81zM98 127h6v1H98zM110 127h6v1H110zM122 127h5v1H122zM133 127h6v1H133zM145 127h6v1H145zM157 127h6v1H157zM174 127h12v1H174zM198 127h6v1H198zM40 128h23v1H40zM69 128h6v1H69zM81 128h11v1H81zM98 128h6v1H98zM110 128h6v1H110zM122 128h5v1H122zM133 128h6v1H133zM145 128h6v1H145zM157 128h6v1H157zM174 128h12v1H174zM198 128h6v1H198zM40 129h23v1H40zM69 129h6v1H69zM81 129h11v1H81zM98 129h6v1H98zM110 129h6v1H110zM122 129h5v1H122zM133 129h6v1H133zM145 129h6v1H145zM157 129h6v1H157zM174 129h12v1H174zM198 129h6v1H198zM40 130h23v1H40zM69 130h6v1H69zM81 130h11v1H81zM98 130h6v1H98zM110 130h6v1H110zM122 130h5v1H122zM133 130h6v1H133zM145 130h6v1H145zM157 130h6v1H157zM174 130h12v1H174zM198 130h6v1H198zM40 131h23v1H40zM69 131h6v1H69zM81 131h11v1H81zM98 131h6v1H98zM110 131h6v1H110zM122 131h5v1H122zM133 131h6v1H133zM145 131h6v1H145zM157 131h6v1H157zM174 131h12v1H174zM198 131h6v1H198zM40 132h23v1H40zM69 132h6v1H69zM81 132h11v1H81zM98 132h6v1H98zM110 132h6v1H110zM122 132h5v1H122zM133 132h6v1H133zM145 132h6v1H145zM157 132h6v1H157zM174 132h12v1H174zM198 132h6v1H198zM57 133h6v1H57zM69 133h23v1H69zM98 133h6v1H98zM110 133h12v1H110zM139 133h6v1H139zM151 133h6v1H151zM163 133h5v1H163zM174 133h6v1H174zM186 133h12v1H186zM57 134h6v1H57zM69 134h23v1H69zM98 134h6v1H98zM110 134h12v1H110zM139 134h6v1H139zM151 134h6v1H151zM163 134h5v1H163zM174 134h6v1H174zM186 134h12v1H186zM57 135h6v1H57zM69 135h23v1H69zM98 135h6v1H98zM110 135h12v1H110zM139 135h6v1H139zM151 135h6v1H151zM163 135h5v1H163zM174 135h6v1H174zM186 135h12v1H186zM57 136h6v1H57zM69 136h23v1H69zM98 136h6v1H98zM110 136h12v1H110zM139 136h6v1H139zM151 136h6v1H151zM163 136h5v1H163zM174 136h6v1H174zM186 136h12v1H186zM57 137h6v1H57zM69 137h23v1H69zM98 137h6v1H98zM110 137h12v1H110zM139 137h6v1H139zM151 137h6v1H151zM163 137h5v1H163zM174 137h6v1H174zM186 137h12v1H186zM57 138h6v1H57zM69 138h23v1H69zM98 138h6v1H98zM110 138h12v1H110zM139 138h6v1H139zM151 138h6v1H151zM163 138h5v1H163zM174 138h6v1H174zM186 138h12v1H186zM40 139h11v1H40zM69 139h6v1H69zM98 139h6v1H98zM116 139h6v1H116zM139 139h18v1H139zM168 139h18v1H168zM192 139h6v1H192zM204 139h6v1H204zM40 140h11v1H40zM69 140h6v1H69zM98 140h6v1H98zM116 140h6v1H116zM139 140h18v1H139zM168 140h18v1H168zM192 140h6v1H192zM204 140h6v1H204zM40 141h11v1H40zM69 141h6v1H69zM98 141h6v1H98zM116 141h6v1H116zM139 141h18v1H139zM168 141h18v1H168zM192 141h6v1H192zM204 141h6v1H204zM40 142h11v1H40zM69 142h6v1H69zM98 142h6v1H98zM116 142h6v1H116zM139 142h18v1H139zM168 142h18v1H168zM192 142h6v1H192zM204 142h6v1H204zM40 143h11v1H40zM69 143h6v1H69zM98 143h6v1H98zM116 143h6v1H116zM139 143h18v1H139zM168 143h18v1H168zM192 143h6v1H192zM204 143h6v1H204zM40 144h11v1H40zM69 144h6v1H69zM98 144h6v1H98zM116 144h6v1H116zM139 144h18v1H139zM168 144h18v1H168zM192 144h6v1H192zM204 144h6v1H204zM40 145h5v1H40zM51 145h12v1H51zM69 145h12v1H69zM98 145h41v1H98zM145 145h6v1H145zM157 145h11v1H157zM174 145h12v1H174zM192 145h6v1H192zM40 146h5v1H40zM51 146h12v1H51zM69 146h12v1H69zM98 146h41v1H98zM145 146h6v1H145zM157 146h11v1H157zM174 146h12v1H174zM192 146h6v1H192zM40 147h5v1H40zM51 147h12v1H51zM69 147h12v1H69zM98 147h41v1H98zM145 147h6v1H145zM157 147h11v1H157zM174 147h12v1H174zM192 147h6v1H192zM40 148h5v1H40zM51 148h12v1H51zM69 148h12v1H69zM98 148h41v1H98zM145 148h6v1H145zM157 148h11v1H157zM174 148h12v1H174zM192 148h6v1H192zM40 149h5v1H40zM51 149h12v1H51zM69 149h12v1H69zM98 149h41v1H98zM145 149h6v1H145zM157 149h11v1H157zM174 149h12v1H174zM192 149h6v1H192zM40 150h5v1H40zM51 150h12v1H51zM69 150h12v1H69zM98 150h41v1H98zM145 150h6v1H145zM157 150h11v1H157zM174 150h12v1H174zM192 150h6v1H192zM40 151h5v1H40zM57 151h18v1H57zM86 151h6v1H86zM98 151h12v1H98zM122 151h5v1H122zM133 151h6v1H133zM145 151h6v1H145zM163 151h11v1H163zM198 151h6v1H198zM40 152h5v1H40zM57 152h18v1H57zM86 152h6v1H86zM98 152h12v1H98zM122 152h5v1H122zM133 152h6v1H133zM145 152h6v1H145zM163 152h11v1H163zM198 152h6v1H198zM40 153h5v1H40zM57 153h18v1H57zM86 153h6v1H86zM98 153h12v1H98zM122 153h5v1H122zM133 153h6v1H133zM145 153h6v1H145zM163 153h11v1H163zM198 153h6v1H198zM40 154h5v1H40zM57 154h18v1H57zM86 154h6v1H86zM98 154h12v1H98zM122 154h5v1H122zM133 154h6v1H133zM145 154h6v1H145zM163 154h11v1H163zM198 154h6v1H198zM40 155h5v1H40zM57 155h18v1H57zM86 155h6v1H86zM98 155h12v1H98zM122 155h5v1H122zM133 155h6v1H133zM145 155h6v1H145zM163 155h11v1H163zM198 155h6v1H198zM40 156h5v1H40zM57 156h18v1H57zM86 156h6v1H86zM98 156h12v1H98zM122 156h5v1H122zM133 156h6v1H133zM145 156h6v1H145zM163 156h11v1H163zM198 156h6v1H198zM40 157h5v1H40zM51 157h6v1H51zM69 157h12v1H69zM98 157h12v1H98zM139 157h6v1H139zM151 157h35v1H151zM192 157h18v1H192zM40 158h5v1H40zM51 158h6v1H51zM69 158h12v1H69zM98 158h12v1H98zM139 158h6v1H139zM151 158h35v1H151zM192 158h18v1H192zM40 159h5v1H40zM51 159h6v1H51zM69 159h12v1H69zM98 159h12v1H98zM139 159h6v1H139zM151 159h35v1H151zM192 159h18v1H192zM40 160h5v1H40zM51 160h6v1H51zM69 160h12v1H69zM98 160h12v1H98zM139 160h6v1H139zM151 160h35v1H151zM192 160h18v1H192zM40 161h5v1H40zM51 161h6v1H51zM69 161h12v1H69zM98 161h12v1H98zM139 161h6v1H139zM151 161h35v1H151zM192 161h18v1H192zM40 162h5v1H40zM51 162h6v1H51zM69 162h12v1H69zM98 162h12v1H98zM139 162h6v1H139zM151 162h35v1H151zM192 162h18v1H192zM86 163h18v1H86zM110 163h12v1H110zM133 163h6v1H133zM151 163h12v1H151zM180 163h30v1H180zM86 164h18v1H86zM110 164h12v1H110zM133 164h6v1H133zM151 164h12v1H151zM180 164h30v1H180zM86 165h18v1H86zM110 165h12v1H110zM133 165h6v1H133zM151 165h12v1H151zM180 165h30v1H180zM86 166h18v1H86zM110 166h12v1H110zM133 166h6v1H133zM151 166h12v1H151zM180 166h30v1H180zM86 167h18v1H86zM110 167h12v1H110zM133 167h6v1H133zM151 167h12v1H151zM180 167h30v1H180zM40 168h41v1H40zM86 168h6v1H86zM98 168h6v1H98zM116 168h23v1H116zM151 168h12v1H151zM168 168h6v1H168zM180 168h18v1H180zM40 169h41v1H40zM86 169h6v1H86zM98 169h6v1H98zM116 169h23v1H116zM151 169h12v1H151zM168 169h6v1H168zM180 169h18v1H180zM40 170h41v1H40zM86 170h6v1H86zM98 170h6v1H98zM116 170h23v1H116zM151 170h12v1H151zM168 170h6v1H168zM180 170h18v1H180zM40 171h41v1H40zM86 171h6v1H86zM98 171h6v1H98zM116 171h23v1H116zM151 171h12v1H151zM168 171h6v1H168zM180 171h18v1H180zM40 172h41v1H40zM86 172h6v1H86zM98 172h6v1H98zM116 172h23v1H116zM151 172h12v1H151zM168 172h6v1H168zM180 172h18v1H180zM40 173h41v1H40zM86 173h6v1H86zM98 173h6v1H98zM116 173h23v1H116zM151 173h12v1H151zM168 173h6v1H168zM180 173h18v1H180zM40 174h5v1H40zM75 174h6v1H75zM110 174h12v1H110zM127 174h6v1H127zM157 174h6v1H157zM180 174h6v1H180zM40 175h5v1H40zM75 175h6v1H75zM110 175h12v1H110zM127 175h6v1H127zM157 175h6v1H157zM180 175h6v1H180zM40 176h5v1H40zM75 176h6v1H75zM110 176h12v1H110zM127 176h6v1H127zM157 176h6v1H157zM180 176h6v1H180zM40 177h5v1H40zM75 177h6v1H75zM110 177h12v1H110zM127 177h6v1H127zM157 177h6v1H157zM180 177h6v1H180zM40 178h5v1H40zM75 178h6v1H75zM110 178h12v1H110zM127 178h6v1H127zM157 178h6v1H157zM180 178h6v1H180zM40 179h5v1H40zM75 179h6v1H75zM110 179h12v1H110zM127 179h6v1H127zM157 179h6v1H157zM180 179h6v1H180zM40 180h5v1H40zM51 180h18v1H51zM75 180h6v1H75zM86 180h12v1H86zM110 180h6v1H110zM122 180h5v1H122zM139 180h6v1H139zM157 180h29v1H157zM192 180h18v1H192zM40 181h5v1H40zM51 181h18v1H51zM75 181h6v1H75zM86 181h12v1H86zM110 181h6v1H110zM122 181h5v1H122zM139 181h6v1H139zM157 181h29v1H157zM192 181h18v1H192zM40 182h5v1H40zM51 182h18v1H51zM75 182h6v1H75zM86 182h12v1H86zM110 182h6v1H110zM122 182h5v1H122zM139 182h6v1H139zM157 182h29v1H157zM192 182h18v1H192zM40 183h5v1H40zM51 183h18v1H51zM75 183h6v1H75zM86 183h12v1H86zM110 183h6v1H110zM122 183h5v1H122zM139 183h6v1H139zM157 183h29v1H157zM192 183h18v1H192zM40 184h5v1H40zM51 184h18v1H51zM75 184h6v1H75zM86 184h12v1H86zM110 184h6v1H110zM122 184h5v1H122zM139 184h6v1H139zM157 184h29v1H157zM192 184h18v1H192zM40 185h5v1H40zM51 185h18v1H51zM75 185h6v1H75zM86 185h12v1H86zM110 185h6v1H110zM122 185h5v1H122zM139 185h6v1H139zM157 185h29v1H157zM192 185h18v1H192zM40 186h5v1H40zM51 186h18v1H51zM75 186h6v1H75zM86 186h6v1H86zM98 186h6v1H98zM133 186h6v1H133zM145 186h6v1H145zM174 186h6v1H174zM186 186h24v1H186zM40 187h5v1H40zM51 187h18v1H51zM75 187h6v1H75zM86 187h6v1H86zM98 187h6v1H98zM133 187h6v1H133zM145 187h6v1H145zM174 187h6v1H174zM186 187h24v1H186zM40 188h5v1H40zM51 188h18v1H51zM75 188h6v1H75zM86 188h6v1H86zM98 188h6v1H98zM133 188h6v1H133zM145 188h6v1H145zM174 188h6v1H174zM186 188h24v1H186zM40 189h5v1H40zM51 189h18v1H51zM75 189h6v1H75zM86 189h6v1H86zM98 189h6v1H98zM133 189h6v1H133zM145 189h6v1H145zM174 189h6v1H174zM186 189h24v1H186zM40 190h5v1H40zM51 190h18v1H51zM75 190h6v1H75zM86 190h6v1H86zM98 190h6v1H98zM133 190h6v1H133zM145 190h6v1H145zM174 190h6v1H174zM186 190h24v1H186zM40 191h5v1H40zM51 191h18v1H51zM75 191h6v1H75zM86 191h6v1H86zM98 191h6v1H98zM133 191h6v1H133zM145 191h6v1H145zM174 191h6v1H174zM186 191h24v1H186zM40 192h5v1H40zM51 192h18v1H51zM75 192h6v1H75zM86 192h12v1H86zM104 192h12v1H104zM127 192h6v1H127zM139 192h18v1H139zM168 192h36v1H168zM40 193h5v1H40zM51 193h18v1H51zM75 193h6v1H75zM86 193h12v1H86zM104 193h12v1H104zM127 193h6v1H127zM139 193h18v1H139zM168 193h36v1H168zM40 194h5v1H40zM51 194h18v1H51zM75 194h6v1H75zM86 194h12v1H86zM104 194h12v1H104zM127 194h6v1H127zM139 194h18v1H139zM168 194h36v1H168zM40 195h5v1H40zM51 195h18v1H51zM75 195h6v1H75zM86 195h12v1H86zM104 195h12v1H104zM127 195h6v1H127zM139 195h18v1H139zM168 195h36v1H168zM40 196h5v1H40zM51 196h18v1H51zM75 196h6v1H75zM86 196h12v1H86zM104 196h12v1H104zM127 196h6v1H127zM139 196h18v1H139zM168 196h36v1H168zM40 197h5v1H40zM51 197h18v1H51zM75 197h6v1H75zM86 197h12v1H86zM104 197h12v1H104zM127 197h6v1H127zM139 197h18v1H139zM168 197h36v1H168zM40 198h5v1H40zM75 198h6v1H75zM86 198h24v1H86zM122 198h5v1H122zM133 198h6v1H133zM145 198h18v1H145zM186 198h6v1H186zM198 198h6v1H198zM40 199h5v1H40zM75 199h6v1H75zM86 199h24v1H86zM122 199h5v1H122zM133 199h6v1H133zM145 199h18v1H145zM186 199h6v1H186zM198 199h6v1H198zM40 200h5v1H40zM75 200h6v1H75zM86 200h24v1H86zM122 200h5v1H122zM133 200h6v1H133zM145 200h18v1H145zM186 200h6v1H186zM198 200h6v1H198zM40 201h5v1H40zM75 201h6v1H75zM86 201h24v1H86zM122 201h5v1H122zM133 201h6v1H133zM145 201h18v1H145zM186 201h6v1H186zM198 201h6v1H198zM40 202h5v1H40zM75 202h6v1H75zM86 202h24v1H86zM122 202h5v1H122zM133 202h6v1H133zM145 202h18v1H145zM186 202h6v1H186zM198 202h6v1H198zM40 203h5v1H40zM75 203h6v1H75zM86 203h24v1H86zM122 203h5v1H122zM133 203h6v1H133zM145 203h18v1H145zM186 203h6v1H186zM198 203h6v1H198zM40 204h41v1H40zM86 204h6v1H86zM104 204h6v1H104zM139 204h12v1H139zM163 204h5v1H163zM174 204h6v1H174zM192 204h6v1H192zM40 205h41v1H40zM86 205h6v1H86zM104 205h6v1H104zM139 205h12v1H139zM163 205h5v1H163zM174 205h6v1H174zM192 205h6v1H192zM40 206h41v1H40zM86 206h6v1H86zM104 206h6v1H104zM139 206h12v1H139zM163 206h5v1H163zM174 206h6v1H174zM192 206h6v1H192zM40 207h41v1H40zM86 207h6v1H86zM104 207h6v1H104zM139 207h12v1H139zM163 207h5v1H163zM174 207h6v1H174zM192 207h6v1H192zM40 208h41v1H40zM86 208h6v1H86zM104 208h6v1H104zM139 208h12v1H139zM163 208h5v1H163zM174 208h6v1H174zM192 208h6v1H192zM40 209h41v1H40zM86 209h6v1H86zM104 209h6v1H104zM139 209h12v1H139zM163 209h5v1H163zM174 209h6v1H174zM192 209h6v1H192z
"/>
</svg>
